<svg xmlns="http://www.w3.org/2000/svg" xmlns:xlink="http://www.w3.org/1999/xlink" width="700" zoomAndPan="magnify" viewBox="0 0 525 299.999988" height="400" preserveAspectRatio="xMidYMid meet" version="1.0"><defs><g/></defs><g fill="#1c2c47" fill-opacity="0.4"><g transform="translate(10.963883, 192.941051)"><g><path d="M 83.609375 0 L 49.4375 0 L 47.90625 -18.234375 L 45.890625 -18.234375 L 44.453125 0 L 10.75 0 L 1.34375 -66.34375 L 30.625 -66.34375 L 33.125 -34.84375 L 35.140625 -34.84375 L 37.4375 -64.703125 L 56.828125 -64.703125 L 59.421875 -34.84375 L 61.53125 -34.84375 L 63.9375 -66.34375 L 92.828125 -66.34375 Z M 83.609375 0 "/></g></g></g><g fill="#1c2c47" fill-opacity="0.4"><g transform="translate(103.219895, 192.941051)"><g><path d="M 2.78125 -28.265625 C 2.78125 -38.023438 5.003906 -45.367188 9.453125 -50.296875 C 13.898438 -55.234375 21.179688 -57.703125 31.296875 -57.703125 C 41.410156 -57.703125 48.453125 -55.648438 52.421875 -51.546875 C 56.390625 -47.453125 58.375 -40.734375 58.375 -31.390625 L 57.890625 -24 L 31.390625 -24 L 31.390625 -20.734375 C 32.992188 -20.347656 35.332031 -20.15625 38.40625 -20.15625 C 44.925781 -20.15625 50.203125 -20.445312 54.234375 -21.03125 L 56.25 -21.3125 L 56.25 -3.265625 C 55.738281 -2.941406 54.921875 -2.539062 53.796875 -2.0625 C 52.679688 -1.582031 50.007812 -0.957031 45.78125 -0.1875 C 41.5625 0.570312 36.863281 0.953125 31.6875 0.953125 C 21.4375 0.953125 14.054688 -1.472656 9.546875 -6.328125 C 5.035156 -11.191406 2.78125 -18.503906 2.78125 -28.265625 Z M 29.953125 -32.546875 L 29.953125 -28.796875 L 35.421875 -28.796875 L 35.421875 -32.546875 C 35.421875 -33.378906 35.148438 -34.050781 34.609375 -34.5625 C 34.066406 -35.070312 33.394531 -35.328125 32.59375 -35.328125 C 31.789062 -35.328125 31.148438 -35.070312 30.671875 -34.5625 C 30.191406 -34.050781 29.953125 -33.378906 29.953125 -32.546875 Z M 29.953125 -32.546875 "/></g></g></g><g fill="#1c2c47" fill-opacity="0.4"><g transform="translate(162.355906, 192.941051)"><g><path d="M 35.328125 -67.296875 C 40.578125 -67.296875 45.488281 -66.957031 50.0625 -66.28125 C 54.632812 -65.613281 57.914062 -64.925781 59.90625 -64.21875 L 62.78125 -63.171875 L 62.78125 -35.71875 C 57.601562 -38.082031 50.5 -39.265625 41.46875 -39.265625 L 41.46875 -36.765625 C 49.789062 -36.128906 55.773438 -34.46875 59.421875 -31.78125 C 63.066406 -29.09375 64.890625 -25.023438 64.890625 -19.578125 C 64.890625 -13.054688 62.234375 -8.003906 56.921875 -4.421875 C 51.609375 -0.835938 43.421875 0.953125 32.359375 0.953125 C 26.015625 0.953125 20.410156 0.585938 15.546875 -0.140625 C 10.679688 -0.878906 7.421875 -1.597656 5.765625 -2.296875 L 3.171875 -3.453125 L 3.171875 -27.359375 C 3.742188 -27.097656 4.601562 -26.742188 5.75 -26.296875 C 6.90625 -25.847656 9.484375 -25.269531 13.484375 -24.5625 C 17.484375 -23.863281 21.789062 -23.515625 26.40625 -23.515625 L 26.40625 -25.828125 C 18.59375 -26.398438 12.703125 -28.0625 8.734375 -30.8125 C 4.765625 -33.5625 2.78125 -38.359375 2.78125 -45.203125 C 2.78125 -52.054688 5.5 -57.453125 10.9375 -61.390625 C 16.382812 -65.328125 24.515625 -67.296875 35.328125 -67.296875 Z M 35.328125 -67.296875 "/></g></g></g><g fill="#1c2c47" fill-opacity="0.4"><g transform="translate(226.771924, 192.941051)"><g><path d="M 54.234375 -1.921875 C 50.078125 -0.00390625 42.75 0.953125 32.25 0.953125 C 21.757812 0.953125 14.222656 -1.441406 9.640625 -6.234375 C 5.066406 -11.035156 2.78125 -18.492188 2.78125 -28.609375 C 2.78125 -38.722656 5.335938 -46.097656 10.453125 -50.734375 C 15.578125 -55.378906 23.257812 -57.703125 33.5 -57.703125 C 38.113281 -57.703125 42.144531 -57.378906 45.59375 -56.734375 C 49.050781 -56.097656 51.359375 -55.457031 52.515625 -54.8125 L 54.234375 -53.859375 L 54.234375 -28.515625 L 34.5625 -28.515625 L 34.5625 -24.28125 C 35.707031 -24.09375 37.660156 -24 40.421875 -24 C 45.023438 -24 49.148438 -24.191406 52.796875 -24.578125 L 54.234375 -24.671875 Z M 54.234375 -1.921875 "/></g></g></g><g fill="#1c2c47" fill-opacity="0.4"><g transform="translate(281.779915, 192.941051)"><g><path d="M 35.421875 0 L 35.421875 -30.4375 C 35.421875 -31.195312 35.148438 -31.847656 34.609375 -32.390625 C 34.066406 -32.941406 33.410156 -33.21875 32.640625 -33.21875 C 31.867188 -33.21875 31.226562 -32.941406 30.71875 -32.390625 C 30.207031 -31.847656 29.953125 -31.195312 29.953125 -30.4375 L 29.953125 0 L 2.78125 0 L 2.78125 -71.515625 L 31.390625 -71.515625 L 31.390625 -59.421875 L 30.4375 -51.171875 C 30.6875 -52.003906 31.128906 -52.832031 31.765625 -53.65625 C 32.410156 -54.488281 33.789062 -55.367188 35.90625 -56.296875 C 38.019531 -57.234375 40.613281 -57.703125 43.6875 -57.703125 C 49.957031 -57.703125 54.675781 -55.972656 57.84375 -52.515625 C 61.007812 -49.054688 62.59375 -44.03125 62.59375 -37.4375 L 62.59375 0 Z M 35.421875 0 "/></g></g></g><g fill="#ffffff" fill-opacity="1"><g transform="translate(6.721242, 188.69841)"><g><path d="M 83.609375 0 L 49.4375 0 L 47.90625 -18.234375 L 45.890625 -18.234375 L 44.453125 0 L 10.75 0 L 1.34375 -66.34375 L 30.625 -66.34375 L 33.125 -34.84375 L 35.140625 -34.84375 L 37.4375 -64.703125 L 56.828125 -64.703125 L 59.421875 -34.84375 L 61.53125 -34.84375 L 63.9375 -66.34375 L 92.828125 -66.34375 Z M 83.609375 0 "/></g></g></g><g fill="#ffffff" fill-opacity="1"><g transform="translate(98.977254, 188.69841)"><g><path d="M 2.78125 -28.265625 C 2.78125 -38.023438 5.003906 -45.367188 9.453125 -50.296875 C 13.898438 -55.234375 21.179688 -57.703125 31.296875 -57.703125 C 41.410156 -57.703125 48.453125 -55.648438 52.421875 -51.546875 C 56.390625 -47.453125 58.375 -40.734375 58.375 -31.390625 L 57.890625 -24 L 31.390625 -24 L 31.390625 -20.734375 C 32.992188 -20.347656 35.332031 -20.15625 38.40625 -20.15625 C 44.925781 -20.15625 50.203125 -20.445312 54.234375 -21.03125 L 56.25 -21.3125 L 56.25 -3.265625 C 55.738281 -2.941406 54.921875 -2.539062 53.796875 -2.0625 C 52.679688 -1.582031 50.007812 -0.957031 45.78125 -0.1875 C 41.5625 0.570312 36.863281 0.953125 31.6875 0.953125 C 21.4375 0.953125 14.054688 -1.472656 9.546875 -6.328125 C 5.035156 -11.191406 2.78125 -18.503906 2.78125 -28.265625 Z M 29.953125 -32.546875 L 29.953125 -28.796875 L 35.421875 -28.796875 L 35.421875 -32.546875 C 35.421875 -33.378906 35.148438 -34.050781 34.609375 -34.5625 C 34.066406 -35.070312 33.394531 -35.328125 32.59375 -35.328125 C 31.789062 -35.328125 31.148438 -35.070312 30.671875 -34.5625 C 30.191406 -34.050781 29.953125 -33.378906 29.953125 -32.546875 Z M 29.953125 -32.546875 "/></g></g></g><g fill="#ffffff" fill-opacity="1"><g transform="translate(158.113266, 188.69841)"><g><path d="M 35.328125 -67.296875 C 40.578125 -67.296875 45.488281 -66.957031 50.0625 -66.28125 C 54.632812 -65.613281 57.914062 -64.925781 59.90625 -64.21875 L 62.78125 -63.171875 L 62.78125 -35.71875 C 57.601562 -38.082031 50.5 -39.265625 41.46875 -39.265625 L 41.46875 -36.765625 C 49.789062 -36.128906 55.773438 -34.46875 59.421875 -31.78125 C 63.066406 -29.09375 64.890625 -25.023438 64.890625 -19.578125 C 64.890625 -13.054688 62.234375 -8.003906 56.921875 -4.421875 C 51.609375 -0.835938 43.421875 0.953125 32.359375 0.953125 C 26.015625 0.953125 20.410156 0.585938 15.546875 -0.140625 C 10.679688 -0.878906 7.421875 -1.597656 5.765625 -2.296875 L 3.171875 -3.453125 L 3.171875 -27.359375 C 3.742188 -27.097656 4.601562 -26.742188 5.75 -26.296875 C 6.90625 -25.847656 9.484375 -25.269531 13.484375 -24.5625 C 17.484375 -23.863281 21.789062 -23.515625 26.40625 -23.515625 L 26.40625 -25.828125 C 18.59375 -26.398438 12.703125 -28.0625 8.734375 -30.8125 C 4.765625 -33.5625 2.78125 -38.359375 2.78125 -45.203125 C 2.78125 -52.054688 5.5 -57.453125 10.9375 -61.390625 C 16.382812 -65.328125 24.515625 -67.296875 35.328125 -67.296875 Z M 35.328125 -67.296875 "/></g></g></g><g fill="#ffffff" fill-opacity="1"><g transform="translate(222.529284, 188.69841)"><g><path d="M 54.234375 -1.921875 C 50.078125 -0.00390625 42.75 0.953125 32.25 0.953125 C 21.757812 0.953125 14.222656 -1.441406 9.640625 -6.234375 C 5.066406 -11.035156 2.78125 -18.492188 2.78125 -28.609375 C 2.78125 -38.722656 5.335938 -46.097656 10.453125 -50.734375 C 15.578125 -55.378906 23.257812 -57.703125 33.5 -57.703125 C 38.113281 -57.703125 42.144531 -57.378906 45.59375 -56.734375 C 49.050781 -56.097656 51.359375 -55.457031 52.515625 -54.8125 L 54.234375 -53.859375 L 54.234375 -28.515625 L 34.5625 -28.515625 L 34.5625 -24.28125 C 35.707031 -24.09375 37.660156 -24 40.421875 -24 C 45.023438 -24 49.148438 -24.191406 52.796875 -24.578125 L 54.234375 -24.671875 Z M 54.234375 -1.921875 "/></g></g></g><g fill="#ffffff" fill-opacity="1"><g transform="translate(277.537275, 188.69841)"><g><path d="M 35.421875 0 L 35.421875 -30.4375 C 35.421875 -31.195312 35.148438 -31.847656 34.609375 -32.390625 C 34.066406 -32.941406 33.410156 -33.21875 32.640625 -33.21875 C 31.867188 -33.21875 31.226562 -32.941406 30.71875 -32.390625 C 30.207031 -31.847656 29.953125 -31.195312 29.953125 -30.4375 L 29.953125 0 L 2.78125 0 L 2.78125 -71.515625 L 31.390625 -71.515625 L 31.390625 -59.421875 L 30.4375 -51.171875 C 30.6875 -52.003906 31.128906 -52.832031 31.765625 -53.65625 C 32.410156 -54.488281 33.789062 -55.367188 35.90625 -56.296875 C 38.019531 -57.234375 40.613281 -57.703125 43.6875 -57.703125 C 49.957031 -57.703125 54.675781 -55.972656 57.84375 -52.515625 C 61.007812 -49.054688 62.59375 -44.03125 62.59375 -37.4375 L 62.59375 0 Z M 35.421875 0 "/></g></g></g><g fill="#1c2c47" fill-opacity="0.4"><g transform="translate(410.294761, 192.941043)"><g><path d="M 34.5625 0.859375 L 30.71875 0.859375 C 21.375 0.859375 14.378906 -1.441406 9.734375 -6.046875 C 5.097656 -10.648438 2.78125 -18.070312 2.78125 -28.3125 C 2.78125 -38.5625 5.097656 -46.019531 9.734375 -50.6875 C 14.378906 -55.363281 21.375 -57.703125 30.71875 -57.703125 L 34.5625 -57.703125 C 43.90625 -57.703125 50.910156 -55.363281 55.578125 -50.6875 C 60.253906 -46.019531 62.59375 -38.5625 62.59375 -28.3125 C 62.59375 -18.070312 60.269531 -10.648438 55.625 -6.046875 C 50.988281 -1.441406 43.96875 0.859375 34.5625 0.859375 Z M 29.953125 -29.09375 L 29.953125 -21.03125 C 29.953125 -20.195312 30.191406 -19.519531 30.671875 -19 C 31.148438 -18.488281 31.789062 -18.234375 32.59375 -18.234375 C 33.394531 -18.234375 34.066406 -18.488281 34.609375 -19 C 35.148438 -19.519531 35.421875 -20.195312 35.421875 -21.03125 L 35.421875 -29.09375 C 35.421875 -29.851562 35.148438 -30.503906 34.609375 -31.046875 C 34.066406 -31.597656 33.410156 -31.875 32.640625 -31.875 C 31.867188 -31.875 31.226562 -31.597656 30.71875 -31.046875 C 30.207031 -30.503906 29.953125 -29.851562 29.953125 -29.09375 Z M 29.953125 -29.09375 "/></g></g></g><g fill="#1c2c47" fill-opacity="0.4"><g transform="translate(473.750769, 192.941043)"><g><path d="M 2.78125 -14.109375 L 2.78125 -71.515625 L 31.578125 -71.515625 L 31.578125 -24.671875 L 33.59375 -24.671875 L 33.59375 -1.0625 C 30.207031 0.28125 25.488281 0.953125 19.4375 0.953125 C 13.394531 0.953125 9.109375 -0.289062 6.578125 -2.78125 C 4.046875 -5.28125 2.78125 -9.054688 2.78125 -14.109375 Z M 2.78125 -14.109375 "/></g></g></g><g fill="#ffffff" fill-opacity="1"><g transform="translate(406.052137, 188.698403)"><g><path d="M 34.5625 0.859375 L 30.71875 0.859375 C 21.375 0.859375 14.378906 -1.441406 9.734375 -6.046875 C 5.097656 -10.648438 2.78125 -18.070312 2.78125 -28.3125 C 2.78125 -38.5625 5.097656 -46.019531 9.734375 -50.6875 C 14.378906 -55.363281 21.375 -57.703125 30.71875 -57.703125 L 34.5625 -57.703125 C 43.90625 -57.703125 50.910156 -55.363281 55.578125 -50.6875 C 60.253906 -46.019531 62.59375 -38.5625 62.59375 -28.3125 C 62.59375 -18.070312 60.269531 -10.648438 55.625 -6.046875 C 50.988281 -1.441406 43.96875 0.859375 34.5625 0.859375 Z M 29.953125 -29.09375 L 29.953125 -21.03125 C 29.953125 -20.195312 30.191406 -19.519531 30.671875 -19 C 31.148438 -18.488281 31.789062 -18.234375 32.59375 -18.234375 C 33.394531 -18.234375 34.066406 -18.488281 34.609375 -19 C 35.148438 -19.519531 35.421875 -20.195312 35.421875 -21.03125 L 35.421875 -29.09375 C 35.421875 -29.851562 35.148438 -30.503906 34.609375 -31.046875 C 34.066406 -31.597656 33.410156 -31.875 32.640625 -31.875 C 31.867188 -31.875 31.226562 -31.597656 30.71875 -31.046875 C 30.207031 -30.503906 29.953125 -29.851562 29.953125 -29.09375 Z M 29.953125 -29.09375 "/></g></g></g><g fill="#ffffff" fill-opacity="1"><g transform="translate(469.508145, 188.698403)"><g><path d="M 2.78125 -14.109375 L 2.78125 -71.515625 L 31.578125 -71.515625 L 31.578125 -24.671875 L 33.59375 -24.671875 L 33.59375 -1.0625 C 30.207031 0.28125 25.488281 0.953125 19.4375 0.953125 C 13.394531 0.953125 9.109375 -0.289062 6.578125 -2.78125 C 4.046875 -5.28125 2.78125 -9.054688 2.78125 -14.109375 Z M 2.78125 -14.109375 "/></g></g></g><g fill="#1c2c47" fill-opacity="0.3412"><g transform="translate(345.144124, 192.867625)"><g><path d="M 34.5625 0.859375 L 30.71875 0.859375 C 21.375 0.859375 14.378906 -1.441406 9.734375 -6.046875 C 5.097656 -10.648438 2.78125 -18.070312 2.78125 -28.3125 C 2.78125 -38.5625 5.097656 -46.019531 9.734375 -50.6875 C 14.378906 -55.363281 21.375 -57.703125 30.71875 -57.703125 L 34.5625 -57.703125 C 43.90625 -57.703125 50.910156 -55.363281 55.578125 -50.6875 C 60.253906 -46.019531 62.59375 -38.5625 62.59375 -28.3125 C 62.59375 -18.070312 60.269531 -10.648438 55.625 -6.046875 C 50.988281 -1.441406 43.96875 0.859375 34.5625 0.859375 Z M 29.953125 -29.09375 L 29.953125 -21.03125 C 29.953125 -20.195312 30.191406 -19.519531 30.671875 -19 C 31.148438 -18.488281 31.789062 -18.234375 32.59375 -18.234375 C 33.394531 -18.234375 34.066406 -18.488281 34.609375 -19 C 35.148438 -19.519531 35.421875 -20.195312 35.421875 -21.03125 L 35.421875 -29.09375 C 35.421875 -29.851562 35.148438 -30.503906 34.609375 -31.046875 C 34.066406 -31.597656 33.410156 -31.875 32.640625 -31.875 C 31.867188 -31.875 31.226562 -31.597656 30.71875 -31.046875 C 30.207031 -30.503906 29.953125 -29.851562 29.953125 -29.09375 Z M 29.953125 -29.09375 "/></g></g></g><g fill="#e77b3f" fill-opacity="1"><g transform="translate(340.901495, 188.624985)"><g><path d="M 34.5625 0.859375 L 30.71875 0.859375 C 21.375 0.859375 14.378906 -1.441406 9.734375 -6.046875 C 5.097656 -10.648438 2.78125 -18.070312 2.78125 -28.3125 C 2.78125 -38.5625 5.097656 -46.019531 9.734375 -50.6875 C 14.378906 -55.363281 21.375 -57.703125 30.71875 -57.703125 L 34.5625 -57.703125 C 43.90625 -57.703125 50.910156 -55.363281 55.578125 -50.6875 C 60.253906 -46.019531 62.59375 -38.5625 62.59375 -28.3125 C 62.59375 -18.070312 60.269531 -10.648438 55.625 -6.046875 C 50.988281 -1.441406 43.96875 0.859375 34.5625 0.859375 Z M 29.953125 -29.09375 L 29.953125 -21.03125 C 29.953125 -20.195312 30.191406 -19.519531 30.671875 -19 C 31.148438 -18.488281 31.789062 -18.234375 32.59375 -18.234375 C 33.394531 -18.234375 34.066406 -18.488281 34.609375 -19 C 35.148438 -19.519531 35.421875 -20.195312 35.421875 -21.03125 L 35.421875 -29.09375 C 35.421875 -29.851562 35.148438 -30.503906 34.609375 -31.046875 C 34.066406 -31.597656 33.410156 -31.875 32.640625 -31.875 C 31.867188 -31.875 31.226562 -31.597656 30.71875 -31.046875 C 30.207031 -30.503906 29.953125 -29.851562 29.953125 -29.09375 Z M 29.953125 -29.09375 "/></g></g></g></svg>