<svg xmlns="http://www.w3.org/2000/svg" xmlns:xlink="http://www.w3.org/1999/xlink" width="700" zoomAndPan="magnify" viewBox="0 0 525 299.999988" height="400" preserveAspectRatio="xMidYMid meet" version="1.0"><defs><g/></defs><g fill="#ffffff" fill-opacity="1"><g transform="translate(8.473925, 175.839926)"><g><path d="M 50.09375 -49.078125 L 38.734375 0 L 21.203125 0 L 1.640625 -75.8125 L 21.3125 -75.8125 L 31.453125 -26.53125 L 31.65625 -26.53125 L 42.828125 -75.8125 L 57.6875 -75.8125 L 68.640625 -26.328125 L 68.84375 -26.328125 L 79.203125 -75.8125 L 98.765625 -75.8125 L 78.6875 0 L 61.671875 0 L 50.296875 -49.078125 Z M 50.09375 -49.078125 "/></g></g></g><g fill="#ffffff" fill-opacity="1"><g transform="translate(106.931225, 175.839926)"><g><path d="M 33.1875 -12.5 C 35.445312 -12.5 37.378906 -12.925781 38.984375 -13.78125 C 40.585938 -14.632812 42.109375 -15.984375 43.546875 -17.828125 L 60.953125 -17.828125 C 58.222656 -11.609375 54.414062 -6.773438 49.53125 -3.328125 C 44.644531 0.117188 39.195312 1.84375 33.1875 1.84375 C 27.789062 1.84375 22.785156 0.515625 18.171875 -2.140625 C 13.566406 -4.804688 9.898438 -8.445312 7.171875 -13.0625 C 4.441406 -17.675781 3.078125 -22.75 3.078125 -28.28125 C 3.078125 -33.675781 4.40625 -38.710938 7.0625 -43.390625 C 9.726562 -48.066406 13.332031 -51.804688 17.875 -54.609375 C 22.414062 -57.410156 27.421875 -58.8125 32.890625 -58.8125 C 38.484375 -58.8125 43.566406 -57.441406 48.140625 -54.703125 C 52.722656 -51.972656 56.328125 -48.25 58.953125 -43.53125 C 61.585938 -38.820312 62.90625 -33.566406 62.90625 -27.765625 C 62.90625 -26.128906 62.769531 -24.625 62.5 -23.25 L 19.875 -23.25 C 20.351562 -20.039062 21.820312 -17.445312 24.28125 -15.46875 C 26.738281 -13.488281 29.707031 -12.5 33.1875 -12.5 Z M 32.890625 -44.46875 C 29.742188 -44.46875 26.992188 -43.59375 24.640625 -41.84375 C 22.285156 -40.101562 20.765625 -37.734375 20.078125 -34.734375 L 45.90625 -34.734375 C 45.21875 -37.671875 43.695312 -40.023438 41.34375 -41.796875 C 38.988281 -43.578125 36.171875 -44.46875 32.890625 -44.46875 Z M 32.890625 -44.46875 "/></g></g></g><g fill="#ffffff" fill-opacity="1"><g transform="translate(171.066755, 175.839926)"><g><path d="M 29.71875 -61.0625 C 27.863281 -61.0625 26.285156 -60.476562 24.984375 -59.3125 C 23.691406 -58.15625 23.046875 -56.757812 23.046875 -55.125 C 23.046875 -53 23.929688 -51.285156 25.703125 -49.984375 C 27.484375 -48.691406 30.734375 -47.023438 35.453125 -44.984375 C 40.984375 -42.585938 45.25 -40.257812 48.25 -38 C 51.257812 -35.75 53.359375 -33.359375 54.546875 -30.828125 C 55.742188 -28.304688 56.34375 -25.304688 56.34375 -21.828125 C 56.34375 -14.515625 53.984375 -8.804688 49.265625 -4.703125 C 44.554688 -0.609375 38.109375 1.4375 29.921875 1.4375 C 21.515625 1.4375 14.851562 -0.710938 9.9375 -5.015625 C 5.019531 -9.316406 2.5625 -15.46875 2.5625 -23.46875 L 2.5625 -25.09375 L 21.828125 -25.09375 C 21.890625 -21.957031 22.640625 -19.445312 24.078125 -17.5625 C 25.515625 -15.6875 27.425781 -14.75 29.8125 -14.75 C 31.789062 -14.75 33.5 -15.445312 34.9375 -16.84375 C 36.375 -18.25 37.09375 -19.976562 37.09375 -22.03125 C 37.09375 -24.414062 35.945312 -26.375 33.65625 -27.90625 C 31.363281 -29.445312 28.101562 -31.039062 23.875 -32.6875 C 23.601562 -32.820312 23.273438 -32.9375 22.890625 -33.03125 C 22.515625 -33.132812 22.160156 -33.289062 21.828125 -33.5 C 15.609375 -36.03125 11.046875 -39 8.140625 -42.40625 C 5.242188 -45.820312 3.796875 -49.992188 3.796875 -54.921875 C 3.796875 -59.085938 5.003906 -62.875 7.421875 -66.28125 C 9.847656 -69.695312 13.09375 -72.378906 17.15625 -74.328125 C 21.21875 -76.273438 25.570312 -77.25 30.21875 -77.25 C 35.070312 -77.25 39.546875 -76.191406 43.640625 -74.078125 C 47.742188 -71.953125 50.765625 -69.269531 52.703125 -66.03125 C 54.648438 -62.789062 55.660156 -58.675781 55.734375 -53.6875 L 36.578125 -53.6875 C 36.171875 -56.351562 35.421875 -58.25 34.328125 -59.375 C 33.234375 -60.5 31.695312 -61.0625 29.71875 -61.0625 Z M 29.71875 -61.0625 "/></g></g></g><g fill="#ffffff" fill-opacity="1"><g transform="translate(227.723225, 175.839926)"><g><path d="M 33.609375 -42.921875 C 29.785156 -42.921875 26.640625 -41.535156 24.171875 -38.765625 C 21.710938 -36.003906 20.484375 -32.578125 20.484375 -28.484375 C 20.484375 -24.316406 21.75 -20.863281 24.28125 -18.125 C 26.8125 -15.394531 30.054688 -14.03125 34.015625 -14.03125 C 39.546875 -14.03125 43.644531 -16.5625 46.3125 -21.625 L 63.625 -21.625 C 62.53125 -16.90625 60.53125 -12.785156 57.625 -9.265625 C 54.726562 -5.753906 51.195312 -3.023438 47.03125 -1.078125 C 42.863281 0.867188 38.351562 1.84375 33.5 1.84375 C 27.96875 1.84375 22.910156 0.476562 18.328125 -2.25 C 13.753906 -4.988281 10.117188 -8.675781 7.421875 -13.3125 C 4.722656 -17.957031 3.375 -23.046875 3.375 -28.578125 C 3.375 -34.117188 4.707031 -39.207031 7.375 -43.84375 C 10.039062 -48.488281 13.660156 -52.144531 18.234375 -54.8125 C 22.804688 -57.476562 27.789062 -58.8125 33.1875 -58.8125 C 38.113281 -58.8125 42.691406 -57.816406 46.921875 -55.828125 C 51.160156 -53.847656 54.726562 -51.066406 57.625 -47.484375 C 60.53125 -43.898438 62.492188 -39.71875 63.515625 -34.9375 L 46.3125 -34.9375 C 43.851562 -40.257812 39.617188 -42.921875 33.609375 -42.921875 Z M 33.609375 -42.921875 "/></g></g></g><g fill="#ffffff" fill-opacity="1"><g transform="translate(292.473486, 175.839926)"><g><path d="M 32.6875 -42.828125 C 26.332031 -42.828125 23.15625 -39.207031 23.15625 -31.96875 L 23.15625 0 L 6.140625 0 L 6.140625 -75.8125 L 23.15625 -75.8125 L 23.15625 -51.4375 C 24.382812 -53.757812 26.3125 -55.566406 28.9375 -56.859375 C 31.570312 -58.160156 34.5625 -58.8125 37.90625 -58.8125 C 44.46875 -58.8125 49.59375 -56.8125 53.28125 -52.8125 C 56.96875 -48.820312 58.8125 -43.132812 58.8125 -35.75 L 58.8125 0 L 41.796875 0 L 41.796875 -31.25 C 41.796875 -38.96875 38.757812 -42.828125 32.6875 -42.828125 Z M 32.6875 -42.828125 "/></g></g></g><g fill="#ffffff" fill-opacity="1"><g transform="translate(421.566624, 176.984549)"><g><path d="M 34.109375 1.734375 C 28.378906 1.734375 23.191406 0.421875 18.546875 -2.203125 C 13.898438 -4.828125 10.226562 -8.425781 7.53125 -13 C 4.832031 -17.582031 3.484375 -22.742188 3.484375 -28.484375 C 3.484375 -34.222656 4.847656 -39.394531 7.578125 -44 C 10.304688 -48.613281 14.007812 -52.21875 18.6875 -54.8125 C 23.375 -57.40625 28.515625 -58.703125 34.109375 -58.703125 C 39.785156 -58.703125 44.960938 -57.40625 49.640625 -54.8125 C 54.316406 -52.21875 58.003906 -48.613281 60.703125 -44 C 63.398438 -39.394531 64.75 -34.289062 64.75 -28.6875 C 64.75 -22.882812 63.398438 -17.660156 60.703125 -13.015625 C 58.003906 -8.367188 54.316406 -4.75 49.640625 -2.15625 C 44.960938 0.4375 39.785156 1.734375 34.109375 1.734375 Z M 47.75 -28.484375 C 47.75 -31.003906 47.148438 -33.359375 45.953125 -35.546875 C 44.753906 -37.734375 43.113281 -39.492188 41.03125 -40.828125 C 38.945312 -42.160156 36.609375 -42.828125 34.015625 -42.828125 C 31.554688 -42.828125 29.300781 -42.175781 27.25 -40.875 C 25.195312 -39.582031 23.554688 -37.820312 22.328125 -35.59375 C 21.097656 -33.375 20.484375 -31.003906 20.484375 -28.484375 C 20.484375 -25.890625 21.082031 -23.5 22.28125 -21.3125 C 23.476562 -19.125 25.117188 -17.378906 27.203125 -16.078125 C 29.285156 -14.785156 31.585938 -14.140625 34.109375 -14.140625 C 36.710938 -14.140625 39.054688 -14.804688 41.140625 -16.140625 C 43.222656 -17.472656 44.84375 -19.226562 46 -21.40625 C 47.164062 -23.59375 47.75 -25.953125 47.75 -28.484375 Z M 47.75 -28.484375 "/></g></g></g><g fill="#ffffff" fill-opacity="1"><g transform="translate(487.727473, 176.984549)"><g><path d="M 23.15625 -75.8125 L 23.15625 0 L 6.140625 0 L 6.140625 -75.8125 Z M 23.15625 -75.8125 "/></g></g></g><g fill="#e77b3f" fill-opacity="1"><g transform="translate(355.354904, 176.67434)"><g><path d="M 34.109375 1.734375 C 28.378906 1.734375 23.191406 0.421875 18.546875 -2.203125 C 13.898438 -4.828125 10.226562 -8.425781 7.53125 -13 C 4.832031 -17.582031 3.484375 -22.742188 3.484375 -28.484375 C 3.484375 -34.222656 4.847656 -39.394531 7.578125 -44 C 10.304688 -48.613281 14.007812 -52.21875 18.6875 -54.8125 C 23.375 -57.40625 28.515625 -58.703125 34.109375 -58.703125 C 39.785156 -58.703125 44.960938 -57.40625 49.640625 -54.8125 C 54.316406 -52.21875 58.003906 -48.613281 60.703125 -44 C 63.398438 -39.394531 64.75 -34.289062 64.75 -28.6875 C 64.75 -22.882812 63.398438 -17.660156 60.703125 -13.015625 C 58.003906 -8.367188 54.316406 -4.75 49.640625 -2.15625 C 44.960938 0.4375 39.785156 1.734375 34.109375 1.734375 Z M 47.75 -28.484375 C 47.75 -31.003906 47.148438 -33.359375 45.953125 -35.546875 C 44.753906 -37.734375 43.113281 -39.492188 41.03125 -40.828125 C 38.945312 -42.160156 36.609375 -42.828125 34.015625 -42.828125 C 31.554688 -42.828125 29.300781 -42.175781 27.25 -40.875 C 25.195312 -39.582031 23.554688 -37.820312 22.328125 -35.59375 C 21.097656 -33.375 20.484375 -31.003906 20.484375 -28.484375 C 20.484375 -25.890625 21.082031 -23.5 22.28125 -21.3125 C 23.476562 -19.125 25.117188 -17.378906 27.203125 -16.078125 C 29.285156 -14.785156 31.585938 -14.140625 34.109375 -14.140625 C 36.710938 -14.140625 39.054688 -14.804688 41.140625 -16.140625 C 43.222656 -17.472656 44.84375 -19.226562 46 -21.40625 C 47.164062 -23.59375 47.75 -25.953125 47.75 -28.484375 Z M 47.75 -28.484375 "/></g></g></g></svg>