<svg width="1353" height="417" viewBox="0 0 1353 417" fill="none" xmlns="http://www.w3.org/2000/svg">
<g clip-path="url(#clip0_26_53)">
<path d="M178.79 282.593C169.103 280.591 168.123 272.809 168.434 262.55C169.716 220.208 170.131 177.851 170.742 135.491C170.792 132.125 171.761 130.087 174.747 128.335C185.497 122.036 196.072 115.44 206.728 108.983C208.1 108.147 209.518 106.31 211.059 107.141C212.608 107.978 211.851 110.209 211.864 111.786C212.136 145.176 212.327 178.564 212.541 211.955C212.616 223.083 212.848 234.222 212.646 245.352C212.573 249.259 213.954 251.407 217.322 253.132C222.495 255.772 227.436 258.856 232.447 261.795C235.576 263.636 236.054 265.448 232.464 267.486C219.898 274.631 207.37 281.831 194.869 289.082C193.031 290.146 191.504 289.991 189.783 288.952C186.657 287.066 183.463 285.279 178.786 282.579L178.79 282.593Z" fill="#EE8F01"/>
<path d="M129.341 254.841C123.443 251.436 117.599 247.958 111.642 244.656C108.203 242.752 106.759 240.013 106.782 236.135C106.986 206.08 107.168 176.025 107.266 145.955C107.286 140.701 109.494 137.276 114.272 135.001C124.317 130.223 134.26 125.201 144.194 120.175C147.825 118.346 149.245 119.085 149.3 123.331C149.971 169.849 150.719 216.353 151.534 262.862C151.594 266.557 150.795 267.4 147.433 265.344C141.487 261.703 135.386 258.331 129.35 254.846L129.341 254.841Z" fill="#EE8F01"/>
<path d="M241.921 245.846C232.964 244.08 231.517 236.686 231.599 227.265C231.759 208.847 230.974 190.427 230.381 172.014C230.266 168.414 231.214 166.132 234.469 164.374C245.276 158.535 255.917 152.405 266.696 146.515C271.805 143.726 274.635 145.464 274.683 151.3C274.948 180.182 275.101 209.057 275.482 237.936C275.533 241.488 274.368 243.586 271.208 244.879C269.835 245.438 268.575 246.28 267.256 246.985C259.156 251.308 250.709 250.931 241.916 245.854L241.921 245.846Z" fill="#EE8F01"/>
</g>
<path d="M388.268 272L368.823 146.204H387.927L403.705 265.945L400.89 265.859L425.964 146.204H449.759L474.748 265.859L471.933 265.945L487.711 146.204H506.9L487.285 272H458.799L436.881 160.532H438.928L416.839 272H388.268ZM526.096 233.195V218.782H592.79L590.231 223.046C590.231 222.705 590.231 222.364 590.231 222.023C590.231 221.625 590.231 221.283 590.231 220.999C590.231 216.394 589.236 212.158 587.246 208.292C585.256 204.368 582.271 201.241 578.291 198.91C574.368 196.522 569.45 195.328 563.537 195.328C557.624 195.328 552.421 196.607 547.93 199.166C543.495 201.668 540.026 205.25 537.525 209.912C535.08 214.517 533.857 220.061 533.857 226.543C533.857 233.138 535.051 238.824 537.439 243.6C539.827 248.319 543.267 251.958 547.759 254.516C552.251 257.075 557.624 258.354 563.878 258.354C568.256 258.354 572.037 257.928 575.221 257.075C578.462 256.165 581.106 254.971 583.153 253.493C585.256 252.015 586.848 250.423 587.929 248.717C589.009 246.954 589.634 245.22 589.805 243.515H608.227C607.885 247.21 606.663 250.878 604.559 254.516C602.512 258.098 599.584 261.368 595.775 264.324C592.022 267.224 587.417 269.555 581.959 271.318C576.557 273.023 570.331 273.876 563.281 273.876C553.843 273.876 545.57 271.886 538.463 267.906C531.356 263.926 525.812 258.411 521.832 251.361C517.852 244.254 515.862 236.123 515.862 226.969C515.862 217.645 517.881 209.457 521.917 202.407C525.954 195.357 531.555 189.87 538.719 185.947C545.883 181.967 554.099 179.977 563.366 179.977C572.805 179.977 580.964 181.967 587.843 185.947C594.78 189.927 600.124 195.413 603.877 202.407C607.63 209.4 609.506 217.446 609.506 226.543C609.506 227.623 609.477 228.874 609.421 230.295C609.364 231.717 609.278 232.683 609.165 233.195H526.096ZM669.11 273.791C660.24 273.791 652.593 272.398 646.168 269.612C639.8 266.826 634.853 262.619 631.328 256.99C627.86 251.304 626.126 244.282 626.126 235.924C626.126 234.844 626.126 233.906 626.126 233.11C626.126 232.314 626.126 231.404 626.126 230.381H644.633C644.633 231.347 644.633 232.2 644.633 232.939C644.633 233.621 644.633 234.503 644.633 235.583C644.633 243.316 646.708 249.001 650.859 252.64C655.009 256.222 661.065 258.013 669.025 258.013C677.155 258.013 683.353 256.649 687.617 253.919C691.881 251.133 694.013 246.67 694.013 240.53C694.013 236.152 692.677 232.484 690.005 229.528C687.389 226.514 683.751 223.927 679.088 221.767C674.483 219.606 669.167 217.588 663.14 215.711C656.374 213.608 650.262 210.935 644.803 207.695C639.345 204.397 634.996 200.303 631.755 195.413C628.571 190.467 626.979 184.44 626.979 177.333C626.979 170.339 628.741 164.398 632.266 159.508C635.792 154.618 640.681 150.923 646.936 148.421C653.19 145.862 660.354 144.583 668.428 144.583C677.013 144.583 684.49 145.919 690.858 148.592C697.283 151.207 702.258 155.187 705.783 160.532C709.365 165.819 711.156 172.5 711.156 180.574C711.156 181.711 711.156 182.706 711.156 183.559C711.156 184.355 711.156 185.35 711.156 186.544H692.563C692.563 185.577 692.563 184.696 692.563 183.9C692.563 183.104 692.563 182.251 692.563 181.341C692.563 173.95 690.545 168.605 686.508 165.308C682.528 162.01 676.615 160.361 668.769 160.361C661.15 160.361 655.265 161.697 651.115 164.369C647.021 167.042 644.974 171.363 644.974 177.333C644.974 181.768 646.282 185.463 648.897 188.42C651.569 191.377 655.208 193.907 659.814 196.01C664.476 198.114 669.764 200.161 675.677 202.151C683.182 204.653 689.635 207.467 695.037 210.594C700.495 213.721 704.702 217.616 707.659 222.278C710.616 226.941 712.094 232.825 712.094 239.933C712.094 247.097 710.331 253.209 706.806 258.269C703.281 263.329 698.306 267.196 691.881 269.868C685.456 272.483 677.866 273.791 669.11 273.791ZM776.166 273.791C767.069 273.791 758.91 271.886 751.689 268.077C744.525 264.211 738.868 258.724 734.717 251.617C730.624 244.51 728.577 236.152 728.577 226.543C728.577 216.934 730.624 208.661 734.717 201.725C738.868 194.731 744.525 189.358 751.689 185.606C758.91 181.853 767.069 179.977 776.166 179.977C783.046 179.977 789.158 181.029 794.503 183.132C799.847 185.179 804.367 187.908 808.063 191.32C811.759 194.731 814.573 198.484 816.506 202.577C818.439 206.671 819.406 210.765 819.406 214.859C819.406 214.915 819.406 215.001 819.406 215.114C819.406 215.228 819.406 215.342 819.406 215.456H801.07C801.07 215.171 801.041 214.859 800.984 214.517C800.927 214.119 800.871 213.75 800.814 213.409C800.359 210.054 799.051 207.069 796.891 204.454C794.73 201.838 791.887 199.763 788.362 198.228C784.837 196.693 780.715 195.925 775.996 195.925C770.822 195.925 766.046 197.062 761.668 199.337C757.346 201.554 753.878 204.937 751.263 209.486C748.647 214.034 747.34 219.72 747.34 226.543C747.34 233.366 748.619 239.108 751.177 243.77C753.793 248.376 757.261 251.873 761.582 254.261C765.96 256.649 770.765 257.843 775.996 257.843C781.624 257.843 786.23 256.99 789.812 255.284C793.394 253.521 796.095 251.19 797.914 248.291C799.733 245.334 800.785 242.15 801.07 238.739H819.406C819.406 242.832 818.468 246.983 816.592 251.19C814.715 255.341 811.958 259.122 808.319 262.533C804.68 265.945 800.16 268.674 794.758 270.721C789.414 272.768 783.216 273.791 776.166 273.791ZM904.412 272V238.824C904.412 237.346 904.412 235.555 904.412 233.451C904.412 231.347 904.412 229.215 904.412 227.054C904.412 224.837 904.412 222.989 904.412 221.511C904.412 213.38 902.735 207.211 899.38 203.004C896.082 198.796 890.652 196.693 883.09 196.693C878.03 196.693 873.652 197.688 869.956 199.678C866.261 201.668 863.389 204.397 861.343 207.865C859.353 211.333 858.358 215.285 858.358 219.72L849.658 216.138C849.658 209.258 851.307 203.118 854.605 197.716C857.96 192.258 862.537 187.937 868.336 184.753C874.192 181.569 880.873 179.977 888.378 179.977C899.295 179.977 907.766 183.246 913.793 189.785C919.877 196.266 922.919 205.307 922.919 216.905C922.919 219.862 922.919 223.359 922.919 227.396C922.919 231.376 922.919 235.725 922.919 240.444V272H904.412ZM839.851 272V138.698H858.358V272H839.851ZM990.043 273.706C980.718 273.706 972.474 271.687 965.31 267.65C958.203 263.614 952.631 258.07 948.594 251.02C944.614 243.913 942.624 235.782 942.624 226.628C942.624 217.531 944.614 209.486 948.594 202.492C952.631 195.442 958.203 189.955 965.31 186.032C972.474 182.052 980.718 180.062 990.043 180.062C999.367 180.062 1007.58 182.052 1014.69 186.032C1021.85 189.955 1027.43 195.442 1031.41 202.492C1035.44 209.486 1037.46 217.531 1037.46 226.628C1037.46 235.782 1035.44 243.913 1031.41 251.02C1027.43 258.07 1021.85 263.614 1014.69 267.65C1007.58 271.687 999.367 273.706 990.043 273.706ZM990.043 257.843C995.728 257.843 1000.73 256.563 1005.05 254.005C1009.37 251.446 1012.76 247.836 1015.2 243.173C1017.65 238.454 1018.87 232.939 1018.87 226.628C1018.87 220.374 1017.65 214.944 1015.2 210.338C1012.76 205.733 1009.37 202.179 1005.05 199.678C1000.73 197.176 995.728 195.925 990.043 195.925C984.414 195.925 979.41 197.176 975.032 199.678C970.711 202.179 967.328 205.733 964.883 210.338C962.439 214.944 961.216 220.374 961.216 226.628C961.216 232.939 962.439 238.454 964.883 243.173C967.328 247.836 970.711 251.446 975.032 254.005C979.41 256.563 984.414 257.843 990.043 257.843ZM1101.81 273.706C1092.49 273.706 1084.24 271.687 1077.08 267.65C1069.97 263.614 1064.4 258.07 1060.36 251.02C1056.38 243.913 1054.39 235.782 1054.39 226.628C1054.39 217.531 1056.38 209.486 1060.36 202.492C1064.4 195.442 1069.97 189.955 1077.08 186.032C1084.24 182.052 1092.49 180.062 1101.81 180.062C1111.14 180.062 1119.35 182.052 1126.46 186.032C1133.63 189.955 1139.2 195.442 1143.18 202.492C1147.21 209.486 1149.23 217.531 1149.23 226.628C1149.23 235.782 1147.21 243.913 1143.18 251.02C1139.2 258.07 1133.63 263.614 1126.46 267.65C1119.35 271.687 1111.14 273.706 1101.81 273.706ZM1101.81 257.843C1107.5 257.843 1112.5 256.563 1116.82 254.005C1121.14 251.446 1124.53 247.836 1126.97 243.173C1129.42 238.454 1130.64 232.939 1130.64 226.628C1130.64 220.374 1129.42 214.944 1126.97 210.338C1124.53 205.733 1121.14 202.179 1116.82 199.678C1112.5 197.176 1107.5 195.925 1101.81 195.925C1096.18 195.925 1091.18 197.176 1086.8 199.678C1082.48 202.179 1079.1 205.733 1076.65 210.338C1074.21 214.944 1072.99 220.374 1072.99 226.628C1072.99 232.939 1074.21 238.454 1076.65 243.173C1079.1 247.836 1082.48 251.446 1086.8 254.005C1091.18 256.563 1096.18 257.843 1101.81 257.843ZM1189.36 138.698V272H1171.11V138.698H1189.36Z" fill="#2C4470"/>
<defs>
<clipPath id="clip0_26_53">
<rect width="168.88" height="194.83" fill="white" transform="translate(64 217.254) rotate(-60)"/>
</clipPath>
</defs>
</svg>
